<svg xmlns="http://www.w3.org/2000/svg" xmlns:xlink="http://www.w3.org/1999/xlink" contentStyleType="text/css" data-diagram-type="SEQUENCE" height="817px" preserveAspectRatio="none" style="width:1819px;height:817px;background:#FFFFFF;" version="1.1" viewBox="0 0 1819 817" width="1819px" zoomAndPan="magnify"><?plantuml 1.2026.3beta4?><defs/><g><rect fill="#E0FFFF" height="804.9922" style="stroke:#181818;stroke-width:0.5;" width="215.6758" x="431.8159" y="6"/><text fill="#000000" font-family="sans-serif" font-size="13" font-weight="700" lengthAdjust="spacing" textLength="199.71" x="439.7988" y="18.0669">Frontend (Blazor Web App)</text><rect fill="#FFFFE0" height="804.9922" style="stroke:#181818;stroke-width:0.5;" width="873.6665" x="749.1235" y="6"/><text fill="#000000" font-family="sans-serif" font-size="13" font-weight="700" lengthAdjust="spacing" textLength="208.5142" x="1081.6997" y="18.0669">Backend (ASP.NET Core API)</text><g><title>AddComponentDialog.razor</title><rect fill="#FFFFFF" height="609.2656" style="stroke:#181818;stroke-width:1;" width="10" x="534.6538" y="112.4297"/></g><g><title>ComponentController</title><rect fill="#FFFFFF" height="388.5313" style="stroke:#181818;stroke-width:1;" width="10" x="830.3496" y="266.8984"/></g><g><title>GraphService</title><rect fill="#FFFFFF" height="330.2656" style="stroke:#181818;stroke-width:1;" width="10" x="1138.7744" y="296.0313"/></g><g><title>GraphRepository</title><rect fill="#FFFFFF" height="272" style="stroke:#181818;stroke-width:1;" width="10" x="1547.7822" y="325.1641"/></g><g><title>Neo4j</title><rect fill="#FFFFFF" height="213.7344" style="stroke:#181818;stroke-width:1;" width="10" x="1754.873" y="354.2969"/></g><rect fill="none" height="530" style="stroke:#000000;stroke-width:1.5;" width="1793.0972" x="10" y="184.6953"/><rect fill="none" height="338.3984" style="stroke:#000000;stroke-width:1.5;" width="1773.0972" x="20" y="369.2969"/><g class="participant-lifeline" data-entity-uid="part1" data-qualified-name="User" id="part1-lifeline"><g><title>............ . ..........</title><rect fill="#000000" fill-opacity="0.00000" height="650.3984" width="8" x="130.6982" y="81.2969"/><line style="stroke:#181818;stroke-width:0.5;stroke-dasharray:5,5;" x1="134" x2="134" y1="81.2969" y2="731.6953"/></g></g><g class="participant-lifeline" data-entity-uid="part2" data-qualified-name="UI" id="part2-lifeline"><g><title>AddComponentDialog.razor</title><rect fill="#000000" fill-opacity="0.00000" height="650.3984" width="8" x="535.6538" y="81.2969"/><line style="stroke:#181818;stroke-width:0.5;stroke-dasharray:5,5;" x1="538.8159" x2="538.8159" y1="81.2969" y2="731.6953"/></g></g><g class="participant-lifeline" data-entity-uid="part3" data-qualified-name="API" id="part3-lifeline"><g><title>ComponentController</title><rect fill="#000000" fill-opacity="0.00000" height="650.3984" width="8" x="831.3496" y="81.2969"/><line style="stroke:#181818;stroke-width:0.5;stroke-dasharray:5,5;" x1="835.1235" x2="835.1235" y1="81.2969" y2="731.6953"/></g></g><g class="participant-lifeline" data-entity-uid="part4" data-qualified-name="Service" id="part4-lifeline"><g><title>GraphService</title><rect fill="#000000" fill-opacity="0.00000" height="650.3984" width="8" x="1139.7744" y="81.2969"/><line style="stroke:#181818;stroke-width:0.5;stroke-dasharray:5,5;" x1="1143.4321" x2="1143.4321" y1="81.2969" y2="731.6953"/></g></g><g class="participant-lifeline" data-entity-uid="part5" data-qualified-name="Repo" id="part5-lifeline"><g><title>GraphRepository</title><rect fill="#000000" fill-opacity="0.00000" height="650.3984" width="8" x="1548.7822" y="81.2969"/><line style="stroke:#181818;stroke-width:0.5;stroke-dasharray:5,5;" x1="1552.7744" x2="1552.7744" y1="81.2969" y2="731.6953"/></g></g><g class="participant-lifeline" data-entity-uid="part6" data-qualified-name="DB" id="part6-lifeline"><g><title>Neo4j</title><rect fill="#000000" fill-opacity="0.00000" height="650.3984" width="8" x="1755.873" y="81.2969"/><line style="stroke:#181818;stroke-width:0.5;stroke-dasharray:5,5;" x1="1759.6489" x2="1759.6489" y1="81.2969" y2="731.6953"/></g></g><g class="participant participant-head" data-entity-uid="part1" data-qualified-name="User" id="part1-head"><text fill="#000000" font-family="sans-serif" font-size="14" lengthAdjust="spacing" textLength="203.3965" x="30" y="77.9951">Пользователь / Архитектор</text><ellipse cx="134.6982" cy="13.5" fill="#E2E2F0" rx="8" ry="8" style="stroke:#181818;stroke-width:0.5;"/><path d="M134.6982,21.5 L134.6982,48.5 M121.6982,29.5 L147.6982,29.5 M134.6982,48.5 L121.6982,63.5 M134.6982,48.5 L147.6982,63.5" fill="none" style="stroke:#181818;stroke-width:0.5;"/></g><g class="participant participant-tail" data-entity-uid="part1" data-qualified-name="User" id="part1-tail"><text fill="#000000" font-family="sans-serif" font-size="14" lengthAdjust="spacing" textLength="203.3965" x="30" y="743.6904">Пользователь / Архитектор</text><ellipse cx="134.6982" cy="755.4922" fill="#E2E2F0" rx="8" ry="8" style="stroke:#181818;stroke-width:0.5;"/><path d="M134.6982,763.4922 L134.6982,790.4922 M121.6982,771.4922 L147.6982,771.4922 M134.6982,790.4922 L121.6982,805.4922 M134.6982,790.4922 L147.6982,805.4922" fill="none" style="stroke:#181818;stroke-width:0.5;"/></g><g class="participant participant-head" data-entity-uid="part2" data-qualified-name="UI" id="part2-head"><rect fill="#E2E2F0" height="30.2969" rx="2.5" ry="2.5" style="stroke:#181818;stroke-width:0.5;" width="207.6758" x="435.8159" y="50"/><text fill="#000000" font-family="sans-serif" font-size="14" lengthAdjust="spacing" textLength="193.6758" x="442.8159" y="69.9951">AddComponentDialog.razor</text></g><g class="participant participant-tail" data-entity-uid="part2" data-qualified-name="UI" id="part2-tail"><rect fill="#E2E2F0" height="30.2969" rx="2.5" ry="2.5" style="stroke:#181818;stroke-width:0.5;" width="207.6758" x="435.8159" y="730.6953"/><text fill="#000000" font-family="sans-serif" font-size="14" lengthAdjust="spacing" textLength="193.6758" x="442.8159" y="750.6904">AddComponentDialog.razor</text></g><g class="participant participant-head" data-entity-uid="part3" data-qualified-name="API" id="part3-head"><rect fill="#E2E2F0" height="30.2969" rx="2.5" ry="2.5" style="stroke:#181818;stroke-width:0.5;" width="164.4521" x="753.1235" y="50"/><text fill="#000000" font-family="sans-serif" font-size="14" lengthAdjust="spacing" textLength="150.4521" x="760.1235" y="69.9951">ComponentController</text></g><g class="participant participant-tail" data-entity-uid="part3" data-qualified-name="API" id="part3-tail"><rect fill="#E2E2F0" height="30.2969" rx="2.5" ry="2.5" style="stroke:#181818;stroke-width:0.5;" width="164.4521" x="753.1235" y="730.6953"/><text fill="#000000" font-family="sans-serif" font-size="14" lengthAdjust="spacing" textLength="150.4521" x="760.1235" y="750.6904">ComponentController</text></g><g class="participant participant-head" data-entity-uid="part4" data-qualified-name="Service" id="part4-head"><rect fill="#E2E2F0" height="30.2969" rx="2.5" ry="2.5" style="stroke:#181818;stroke-width:0.5;" width="108.6846" x="1089.4321" y="50"/><text fill="#000000" font-family="sans-serif" font-size="14" lengthAdjust="spacing" textLength="94.6846" x="1096.4321" y="69.9951">GraphService</text></g><g class="participant participant-tail" data-entity-uid="part4" data-qualified-name="Service" id="part4-tail"><rect fill="#E2E2F0" height="30.2969" rx="2.5" ry="2.5" style="stroke:#181818;stroke-width:0.5;" width="108.6846" x="1089.4321" y="730.6953"/><text fill="#000000" font-family="sans-serif" font-size="14" lengthAdjust="spacing" textLength="94.6846" x="1096.4321" y="750.6904">GraphService</text></g><g class="participant participant-head" data-entity-uid="part5" data-qualified-name="Repo" id="part5-head"><rect fill="#E2E2F0" height="30.2969" rx="2.5" ry="2.5" style="stroke:#181818;stroke-width:0.5;" width="132.0156" x="1486.7744" y="50"/><text fill="#000000" font-family="sans-serif" font-size="14" lengthAdjust="spacing" textLength="118.0156" x="1493.7744" y="69.9951">GraphRepository</text></g><g class="participant participant-tail" data-entity-uid="part5" data-qualified-name="Repo" id="part5-tail"><rect fill="#E2E2F0" height="30.2969" rx="2.5" ry="2.5" style="stroke:#181818;stroke-width:0.5;" width="132.0156" x="1486.7744" y="730.6953"/><text fill="#000000" font-family="sans-serif" font-size="14" lengthAdjust="spacing" textLength="118.0156" x="1493.7744" y="750.6904">GraphRepository</text></g><g class="participant participant-head" data-entity-uid="part6" data-qualified-name="DB" id="part6-head"><text fill="#000000" font-family="sans-serif" font-size="14" lengthAdjust="spacing" textLength="40.4482" x="1736.6489" y="77.9951">Neo4j</text><path d="M1741.873,29 C1741.873,19 1759.873,19 1759.873,19 C1759.873,19 1777.873,19 1777.873,29 L1777.873,55 C1777.873,65 1759.873,65 1759.873,65 C1759.873,65 1741.873,65 1741.873,55 L1741.873,29" fill="#90EE90" style="stroke:#181818;stroke-width:0.5;"/><path d="M1741.873,29 C1741.873,39 1759.873,39 1759.873,39 C1759.873,39 1777.873,39 1777.873,29" fill="none" style="stroke:#181818;stroke-width:0.5;"/></g><g class="participant participant-tail" data-entity-uid="part6" data-qualified-name="DB" id="part6-tail"><text fill="#000000" font-family="sans-serif" font-size="14" lengthAdjust="spacing" textLength="40.4482" x="1736.6489" y="743.6904">Neo4j</text><path d="M1741.873,756.9922 C1741.873,746.9922 1759.873,746.9922 1759.873,746.9922 C1759.873,746.9922 1777.873,746.9922 1777.873,756.9922 L1777.873,782.9922 C1777.873,792.9922 1759.873,792.9922 1759.873,792.9922 C1759.873,792.9922 1741.873,792.9922 1741.873,782.9922 L1741.873,756.9922" fill="#90EE90" style="stroke:#181818;stroke-width:0.5;"/><path d="M1741.873,756.9922 C1741.873,766.9922 1759.873,766.9922 1759.873,766.9922 C1759.873,766.9922 1777.873,766.9922 1777.873,756.9922" fill="none" style="stroke:#181818;stroke-width:0.5;"/></g><g><title>AddComponentDialog.razor</title><rect fill="#FFFFFF" height="609.2656" style="stroke:#181818;stroke-width:1;" width="10" x="534.6538" y="112.4297"/></g><g><title>ComponentController</title><rect fill="#FFFFFF" height="388.5313" style="stroke:#181818;stroke-width:1;" width="10" x="830.3496" y="266.8984"/></g><g><title>GraphService</title><rect fill="#FFFFFF" height="330.2656" style="stroke:#181818;stroke-width:1;" width="10" x="1138.7744" y="296.0313"/></g><g><title>GraphRepository</title><rect fill="#FFFFFF" height="272" style="stroke:#181818;stroke-width:1;" width="10" x="1547.7822" y="325.1641"/></g><g><title>Neo4j</title><rect fill="#FFFFFF" height="213.7344" style="stroke:#181818;stroke-width:1;" width="10" x="1754.873" y="354.2969"/></g><g class="message" data-entity-1="part1" data-entity-2="part2" id="msg1"><polygon fill="#181818" points="522.6538,108.4297,532.6538,112.4297,522.6538,116.4297,526.6538,112.4297" style="stroke:#181818;stroke-width:1;"/><line style="stroke:#181818;stroke-width:1;" x1="134.6982" x2="528.6538" y1="112.4297" y2="112.4297"/><text fill="#000000" font-family="sans-serif" font-size="13" font-weight="700" lengthAdjust="spacing" textLength="9.0454" x="141.6982" y="107.3638">1</text><text fill="#000000" font-family="sans-serif" font-size="13" lengthAdjust="spacing" textLength="367.9102" x="154.7437" y="107.3638">Ввод данных (Имя, описание, тип) и клик "Добавить"</text></g><g class="message" data-entity-1="part2" data-entity-2="part2" id="msg2"><line style="stroke:#181818;stroke-width:1;" x1="544.6538" x2="586.6538" y1="156.6953" y2="156.6953"/><line style="stroke:#181818;stroke-width:1;" x1="586.6538" x2="586.6538" y1="156.6953" y2="169.6953"/><line style="stroke:#181818;stroke-width:1;" x1="545.6538" x2="586.6538" y1="169.6953" y2="169.6953"/><polygon fill="#181818" points="555.6538,165.6953,545.6538,169.6953,555.6538,173.6953,551.6538,169.6953" style="stroke:#181818;stroke-width:1;"/><text fill="#000000" font-family="sans-serif" font-size="13" font-weight="700" lengthAdjust="spacing" textLength="9.0454" x="551.6538" y="144.063">2</text><text fill="#000000" font-family="sans-serif" font-size="13" lengthAdjust="spacing" textLength="172.2754" x="564.6992" y="136.4966">Проверить корректность</text><text fill="#000000" font-family="sans-serif" font-size="13" lengthAdjust="spacing" textLength="131.3076" x="564.6992" y="151.6294">введенных данных</text></g><path d="M10,184.6953 L74.4429,184.6953 L74.4429,191.8281 L64.4429,201.8281 L10,201.8281 L10,184.6953" fill="#EEEEEE" style="stroke:#000000;stroke-width:1.5;"/><rect fill="none" height="530" style="stroke:#000000;stroke-width:1.5;" width="1793.0972" x="10" y="184.6953"/><text fill="#000000" font-family="sans-serif" font-size="13" font-weight="700" lengthAdjust="spacing" textLength="19.4429" x="25" y="197.7622">alt</text><text fill="#000000" font-family="sans-serif" font-size="11" font-weight="700" lengthAdjust="spacing" textLength="148.3926" x="89.4429" y="196.9058">[Данные некорректны]</text><g class="message" data-entity-1="part2" data-entity-2="part1" id="msg3"><polygon fill="#181818" points="145.6982,218.9609,135.6982,222.9609,145.6982,226.9609,141.6982,222.9609" style="stroke:#181818;stroke-width:1;"/><line style="stroke:#181818;stroke-width:1;stroke-dasharray:2,2;" x1="139.6982" x2="533.6538" y1="222.9609" y2="222.9609"/><text fill="#000000" font-family="sans-serif" font-size="13" font-weight="700" lengthAdjust="spacing" textLength="9.0454" x="151.6982" y="217.895">3</text><text fill="#000000" font-family="sans-serif" font-size="13" lengthAdjust="spacing" textLength="304.7954" x="164.7437" y="217.895">Вывести сообщение об ошибке (Валидация)</text></g><line style="stroke:#000000;stroke-width:1;stroke-dasharray:2,2;" x1="10" x2="1803.0972" y1="231.9609" y2="231.9609"/><text fill="#000000" font-family="sans-serif" font-size="11" font-weight="700" lengthAdjust="spacing" textLength="133.332" x="15" y="242.1714">[Данные корректны]</text><g class="message" data-entity-1="part2" data-entity-2="part3" id="msg4"><polygon fill="#181818" points="818.3496,262.8984,828.3496,266.8984,818.3496,270.8984,822.3496,266.8984" style="stroke:#181818;stroke-width:1;"/><line style="stroke:#181818;stroke-width:1;" x1="544.6538" x2="824.3496" y1="266.8984" y2="266.8984"/><text fill="#000000" font-family="sans-serif" font-size="13" font-weight="700" lengthAdjust="spacing" textLength="9.0454" x="551.6538" y="261.8325">4</text><text fill="#000000" font-family="sans-serif" font-size="13" lengthAdjust="spacing" textLength="167.6479" x="564.6992" y="261.8325">POST /api/v1/components</text></g><g class="message" data-entity-1="part3" data-entity-2="part4" id="msg5"><polygon fill="#181818" points="1126.7744,292.0313,1136.7744,296.0313,1126.7744,300.0313,1130.7744,296.0313" style="stroke:#181818;stroke-width:1;"/><line style="stroke:#181818;stroke-width:1;" x1="840.3496" x2="1132.7744" y1="296.0313" y2="296.0313"/><text fill="#000000" font-family="sans-serif" font-size="13" font-weight="700" lengthAdjust="spacing" textLength="9.0454" x="847.3496" y="290.9653">5</text><text fill="#000000" font-family="sans-serif" font-size="13" lengthAdjust="spacing" textLength="266.3794" x="860.395" y="290.9653">CreateComponentAsync(ComponentDto)</text></g><g class="message" data-entity-1="part4" data-entity-2="part5" id="msg6"><polygon fill="#181818" points="1535.7822,321.1641,1545.7822,325.1641,1535.7822,329.1641,1539.7822,325.1641" style="stroke:#181818;stroke-width:1;"/><line style="stroke:#181818;stroke-width:1;" x1="1148.7744" x2="1541.7822" y1="325.1641" y2="325.1641"/><text fill="#000000" font-family="sans-serif" font-size="13" font-weight="700" lengthAdjust="spacing" textLength="9.0454" x="1155.7744" y="320.0981">6</text><text fill="#000000" font-family="sans-serif" font-size="13" lengthAdjust="spacing" textLength="263.1865" x="1168.8198" y="320.0981">AddComponentAsync(ComponentEntity)</text></g><g class="message" data-entity-1="part5" data-entity-2="part6" id="msg7"><polygon fill="#181818" points="1742.873,350.2969,1752.873,354.2969,1742.873,358.2969,1746.873,354.2969" style="stroke:#181818;stroke-width:1;"/><line style="stroke:#181818;stroke-width:1;" x1="1557.7822" x2="1748.873" y1="354.2969" y2="354.2969"/><text fill="#000000" font-family="sans-serif" font-size="13" font-weight="700" lengthAdjust="spacing" textLength="9.0454" x="1564.7822" y="349.231">7</text><text fill="#000000" font-family="sans-serif" font-size="13" lengthAdjust="spacing" textLength="165.0454" x="1577.8276" y="349.231">CREATE (c:Component...)</text></g><path d="M20,369.2969 L84.4429,369.2969 L84.4429,376.4297 L74.4429,386.4297 L20,386.4297 L20,369.2969" fill="#EEEEEE" style="stroke:#000000;stroke-width:1.5;"/><rect fill="none" height="338.3984" style="stroke:#000000;stroke-width:1.5;" width="1773.0972" x="20" y="369.2969"/><text fill="#000000" font-family="sans-serif" font-size="13" font-weight="700" lengthAdjust="spacing" textLength="19.4429" x="35" y="382.3638">alt</text><text fill="#000000" font-family="sans-serif" font-size="11" font-weight="700" lengthAdjust="spacing" textLength="248.1069" x="99.4429" y="381.5073">[Ошибка при создании (DB Exception)]</text><g class="message" data-entity-1="part6" data-entity-2="part5" id="msg8"><polygon fill="#181818" points="1568.7822,403.5625,1558.7822,407.5625,1568.7822,411.5625,1564.7822,407.5625" style="stroke:#181818;stroke-width:1;"/><line style="stroke:#181818;stroke-width:1;stroke-dasharray:2,2;" x1="1562.7822" x2="1753.873" y1="407.5625" y2="407.5625"/><text fill="#000000" font-family="sans-serif" font-size="13" font-weight="700" lengthAdjust="spacing" textLength="9.0454" x="1574.7822" y="402.4966">8</text><text fill="#000000" font-family="sans-serif" font-size="13" lengthAdjust="spacing" textLength="77.6191" x="1587.8276" y="402.4966">Ошибка БД</text></g><g class="message" data-entity-1="part5" data-entity-2="part4" id="msg9"><polygon fill="#181818" points="1159.7744,432.6953,1149.7744,436.6953,1159.7744,440.6953,1155.7744,436.6953" style="stroke:#181818;stroke-width:1;"/><line style="stroke:#181818;stroke-width:1;stroke-dasharray:2,2;" x1="1153.7744" x2="1546.7822" y1="436.6953" y2="436.6953"/><text fill="#000000" font-family="sans-serif" font-size="13" font-weight="700" lengthAdjust="spacing" textLength="9.0454" x="1165.7744" y="431.6294">9</text><text fill="#000000" font-family="sans-serif" font-size="13" lengthAdjust="spacing" textLength="361.9624" x="1178.8198" y="431.6294">Throw DbException ("Ошибка создания компонента")</text></g><g class="message" data-entity-1="part4" data-entity-2="part3" id="msg10"><polygon fill="#181818" points="851.3496,461.8281,841.3496,465.8281,851.3496,469.8281,847.3496,465.8281" style="stroke:#181818;stroke-width:1;"/><line style="stroke:#181818;stroke-width:1;stroke-dasharray:2,2;" x1="845.3496" x2="1137.7744" y1="465.8281" y2="465.8281"/><text fill="#000000" font-family="sans-serif" font-size="13" font-weight="700" lengthAdjust="spacing" textLength="18.0908" x="857.3496" y="460.7622">10</text><text fill="#000000" font-family="sans-serif" font-size="13" lengthAdjust="spacing" textLength="82.4688" x="879.4404" y="460.7622">DbException</text></g><g class="message" data-entity-1="part3" data-entity-2="part2" id="msg11"><polygon fill="#181818" points="555.6538,490.9609,545.6538,494.9609,555.6538,498.9609,551.6538,494.9609" style="stroke:#181818;stroke-width:1;"/><line style="stroke:#181818;stroke-width:1;stroke-dasharray:2,2;" x1="549.6538" x2="829.3496" y1="494.9609" y2="494.9609"/><text fill="#000000" font-family="sans-serif" font-size="13" font-weight="700" lengthAdjust="spacing" textLength="18.0908" x="561.6538" y="489.895">11</text><text fill="#000000" font-family="sans-serif" font-size="13" lengthAdjust="spacing" textLength="98.6045" x="583.7446" y="489.895">500 / 400 Error</text></g><g class="message" data-entity-1="part2" data-entity-2="part1" id="msg12"><polygon fill="#181818" points="145.6982,520.0938,135.6982,524.0938,145.6982,528.0938,141.6982,524.0938" style="stroke:#181818;stroke-width:1;"/><line style="stroke:#181818;stroke-width:1;stroke-dasharray:2,2;" x1="139.6982" x2="533.6538" y1="524.0938" y2="524.0938"/><text fill="#000000" font-family="sans-serif" font-size="13" font-weight="700" lengthAdjust="spacing" textLength="18.0908" x="151.6982" y="519.0278">12</text><text fill="#000000" font-family="sans-serif" font-size="13" lengthAdjust="spacing" textLength="214.8047" x="173.7891" y="519.0278">Вывести сообщение об ошибке</text></g><line style="stroke:#000000;stroke-width:1;stroke-dasharray:2,2;" x1="20" x2="1793.0972" y1="533.0938" y2="533.0938"/><text fill="#000000" font-family="sans-serif" font-size="11" font-weight="700" lengthAdjust="spacing" textLength="169.125" x="25" y="543.3042">[Запись успешно создана]</text><g class="message" data-entity-1="part6" data-entity-2="part5" id="msg13"><polygon fill="#181818" points="1568.7822,564.0313,1558.7822,568.0313,1568.7822,572.0313,1564.7822,568.0313" style="stroke:#181818;stroke-width:1;"/><line style="stroke:#181818;stroke-width:1;stroke-dasharray:2,2;" x1="1562.7822" x2="1758.873" y1="568.0313" y2="568.0313"/><text fill="#000000" font-family="sans-serif" font-size="13" font-weight="700" lengthAdjust="spacing" textLength="18.0908" x="1574.7822" y="562.9653">13</text><text fill="#000000" font-family="sans-serif" font-size="13" lengthAdjust="spacing" textLength="18.7573" x="1596.873" y="562.9653">OK</text></g><g class="message" data-entity-1="part5" data-entity-2="part4" id="msg14"><polygon fill="#181818" points="1159.7744,593.1641,1149.7744,597.1641,1159.7744,601.1641,1155.7744,597.1641" style="stroke:#181818;stroke-width:1;"/><line style="stroke:#181818;stroke-width:1;stroke-dasharray:2,2;" x1="1153.7744" x2="1551.7822" y1="597.1641" y2="597.1641"/><text fill="#000000" font-family="sans-serif" font-size="13" font-weight="700" lengthAdjust="spacing" textLength="18.0908" x="1165.7744" y="592.0981">14</text><text fill="#000000" font-family="sans-serif" font-size="13" lengthAdjust="spacing" textLength="93.4502" x="1187.8652" y="592.0981">Component ID</text></g><g class="message" data-entity-1="part4" data-entity-2="part3" id="msg15"><polygon fill="#181818" points="851.3496,622.2969,841.3496,626.2969,851.3496,630.2969,847.3496,626.2969" style="stroke:#181818;stroke-width:1;"/><line style="stroke:#181818;stroke-width:1;stroke-dasharray:2,2;" x1="845.3496" x2="1142.7744" y1="626.2969" y2="626.2969"/><text fill="#000000" font-family="sans-serif" font-size="13" font-weight="700" lengthAdjust="spacing" textLength="18.0908" x="857.3496" y="621.231">15</text><text fill="#000000" font-family="sans-serif" font-size="13" lengthAdjust="spacing" textLength="148.478" x="879.4404" y="621.231">Result (Component ID)</text></g><g class="message" data-entity-1="part3" data-entity-2="part2" id="msg16"><polygon fill="#181818" points="555.6538,651.4297,545.6538,655.4297,555.6538,659.4297,551.6538,655.4297" style="stroke:#181818;stroke-width:1;"/><line style="stroke:#181818;stroke-width:1;stroke-dasharray:2,2;" x1="549.6538" x2="834.3496" y1="655.4297" y2="655.4297"/><text fill="#000000" font-family="sans-serif" font-size="13" font-weight="700" lengthAdjust="spacing" textLength="18.0908" x="561.6538" y="650.3638">16</text><text fill="#000000" font-family="sans-serif" font-size="13" lengthAdjust="spacing" textLength="239.605" x="583.7446" y="650.3638">201 Created + JSON (Component ID)</text></g><g class="message" data-entity-1="part2" data-entity-2="part1" id="msg17"><polygon fill="#181818" points="145.6982,695.6953,135.6982,699.6953,145.6982,703.6953,141.6982,699.6953" style="stroke:#181818;stroke-width:1;"/><line style="stroke:#181818;stroke-width:1;stroke-dasharray:2,2;" x1="139.6982" x2="533.6538" y1="699.6953" y2="699.6953"/><text fill="#000000" font-family="sans-serif" font-size="13" font-weight="700" lengthAdjust="spacing" textLength="18.0908" x="151.6982" y="687.063">17</text><text fill="#000000" font-family="sans-serif" font-size="13" lengthAdjust="spacing" textLength="209.6694" x="173.7891" y="679.4966">Вывести сообщение об успехе</text><text fill="#000000" font-family="sans-serif" font-size="13" lengthAdjust="spacing" textLength="195.9966" x="173.7891" y="694.6294">и ID созданного компонента</text></g><?plantuml-src fLJBJjj05DtxAwxSJQ920bMxOO6KLn5j1OYagYfruoGZS6iybcCUwGfQKL61H8kGsbNvXK2nY80alp3-evuP9vCu2LBLUc5xPkuzzt7E7MixuExsLfNvXbKBk4-ck11TSHUTY1jyhqGh-YH2kQOiYM_HVdGeschh5kzkj6-IrQ3N3VWRLRv7vdEVkm5pwvJAEzP70BvXLSfvNjgaHw_iZSsWqBHSmxFymAxPdkK6PERgzGBVyhZBtA1eMmxVoFZIDOPUDYGQiFi1ybRjWyBFbTSoAwKA5RZFABUsh2EyPOx3TvCnT802qlEvux0O7dv9moNVyZRBpD-nQqnPzF-dMAqpZpTiDAsf3ELoc6lT2gogrM1ahZ3-zBsoAERx6IxvZBc68Tj6iukeaHP8dA7RNN5DubgqH4TqekFea5BYfxYFJcS8Hprq_a2TjKKuG-X_M_JI9DeaRiKT5hTWxno6bp2waZH59wQarTwn0YOxQI2IZdSHxIk6GtoLhOG1erZ6x7QmEf07xroOmH2PXJgpqJGDmt82Gkp-ZWW9F-4uNdHi41wPXCn2LY_hXhtCua0MHAYmAqk8lgfORGc59LxH4LQNm0pHbJE4aYKZYUWBqZzD6yn1jvCvF1n_KJAFw6khvGfbBS_ExindQmEHD9ITxfmKYTgHFd3jImBk1P_1G8ihrsYwjTHGp05F9v46ObAx0nWWIkq0RdGInh1ARc07pJ4u9JcrfG0018aXg_LIhbAYL6r1ksSocJ7VObwjuqt9tY_Tu1Q9dXH5JCPDd-asDbB0B-tLc1VOt8q1vOFTsM4LIQJlubpRnLacEbZPzFak5QiQbL9c0Y2PGtIgM1Ntc8QkqbW7pBRCOIwwgvhZKN1jfgWSpCApkJbSRq_nBla-zxNHVojL8SN2_842r0HZqABFSEu1wKWEMRB4rWDTNNsf3-fid4NDv0DTrZgWvU8q62Ma2Q39LgwpnZQqaXh5Iqy370Xz0ZFHzoTpy_qHgjDZUb5UNVaBQ3cD4x3_n9IcuL24kEFQY9Za0kI8to1eckHYQjswlF9ntREHU_OF?></g></svg>